<?xml version="1.0" encoding="iso-8859-1"?>
<!-- Uploaded to: SVG Repo, www.svgrepo.com, Generator: SVG Repo Mixer Tools -->
<svg height="50px" width="50px" version="1.1" id="Layer_1" xmlns="http://www.w3.org/2000/svg" xmlns:xlink="http://www.w3.org/1999/xlink" 
	 viewBox="0 0 477.4 477.4" xml:space="preserve">
<path style="fill:#FFD41F;" d="M222.4,238.3L380,80.7c-40-40-96-64.8-157.6-64.8C100,15.9,0,115.1,0,238.3s100,222.4,222.4,222.4
	c61.6,0,116.8-24.8,157.6-64.8L222.4,238.3z"/>
<path style="fill:#FFC41D;" d="M0,238.3c0,123.2,100,222.4,222.4,222.4c61.6,0,116.8-24.8,157.6-64.8L222.4,238.3L380,80.7"/>
<path style="fill:#EAAA0A;" d="M222.4,238.3L64.8,395.9c5.6,5.6,10.4,10.4,16,15.2c2.4,1.6,4.8,3.2,7.2,5.6c3.2,2.4,7.2,5.6,10.4,8
	c3.2,1.6,6.4,4,8.8,5.6c3.2,1.6,6.4,4,9.6,5.6c3.2,1.6,6.4,3.2,9.6,4.8c3.2,1.6,6.4,3.2,10.4,4.8c3.2,1.6,6.4,2.4,9.6,3.2
	c4,1.6,7.2,2.4,11.2,4c3.2,0.8,6.4,1.6,9.6,2.4c4,0.8,7.2,2.4,11.2,2.4c4,0.8,7.2,0.8,11.2,1.6c3.2,0.8,7.2,0.8,10.4,1.6
	c7.2,0.8,13.6,0.8,20.8,0.8c0.8,0,1.6,0,2.4,0c7.2,0,13.6,0,20.8-0.8c3.2,0,7.2-0.8,10.4-1.6c4-0.8,8-0.8,11.2-1.6
	c4-0.8,7.2-1.6,11.2-2.4c3.2-0.8,6.4-1.6,9.6-2.4c4-0.8,7.2-2.4,10.4-4c3.2-0.8,6.4-2.4,9.6-4s6.4-3.2,9.6-4.8
	c3.2-1.6,6.4-3.2,10.4-4.8c3.2-1.6,5.6-3.2,8.8-5.6c3.2-1.6,6.4-4,9.6-5.6c3.2-2.4,6.4-4.8,9.6-7.2c2.4-1.6,5.6-4,8-5.6
	c5.6-4.8,11.2-9.6,16-14.4L222.4,238.3z"/>
<path style="fill:#3E4242;" d="M217.6,85.5c-4.8,0-9.6,1.6-12.8,4.8c4,0.8,7.2,4,7.2,8s-3.2,8-8,8c-1.6,0-3.2-0.8-4.8-1.6
	c0.8,9.6,8,16.8,18.4,16.8s18.4-8,18.4-18.4C235.2,94.3,227.2,85.5,217.6,85.5z"/>
<path style="fill:#212626;" d="M204,106.3c-1.6,0-3.2-0.8-4.8-1.6c0.8,9.6,8,16.8,18.4,16.8s18.4-8,18.4-18.4"/>
<circle style="fill:#329908;" cx="324.8" cy="238.3" r="17.6"/>
<path style="fill:#236D00;" d="M337.6,225.5c7.2,7.2,7.2,18.4,0,25.6c-7.2,7.2-18.4,7.2-25.6,0"/>
<circle style="fill:#329908;" cx="392" cy="238.3" r="17.6"/>
<path style="fill:#236D00;" d="M404.8,225.5c7.2,7.2,7.2,18.4,0,25.6c-7.2,7.2-18.4,7.2-25.6,0"/>
<circle style="fill:#329908;" cx="459.2" cy="238.3" r="17.6"/>
<path style="fill:#236D00;" d="M472,225.5c7.2,7.2,7.2,18.4,0,25.6c-7.2,7.2-18.4,7.2-25.6,0"/>
</svg>